<?xml version="1.0" standalone="no"?>
<!DOCTYPE svg PUBLIC "-//W3C//DTD SVG 20010904//EN"
 "http://www.w3.org/TR/2001/REC-SVG-20010904/DTD/svg10.dtd">
<svg version="1.0" xmlns="http://www.w3.org/2000/svg"
 width="217.000000pt" height="232.000000pt" viewBox="0 0 217.000000 232.000000"
 preserveAspectRatio="xMidYMid meet">

<g transform="translate(0.000000,232.000000) scale(0.100000,-0.100000)"
fill="#000000" stroke="none">
<path d="M810 1795 l0 -95 80 0 80 0 0 30 c0 29 -2 30 -45 30 -45 0 -45 0 -45
35 0 35 0 35 45 35 43 0 45 1 45 30 l0 30 -80 0 -80 0 0 -95z"/>
<path d="M1000 1826 l0 -65 48 -4 47 -3 -47 -2 c-46 -2 -48 -3 -48 -32 l0 -30
80 0 80 0 0 65 0 65 -52 2 -53 1 50 6 c45 5 50 9 53 34 l3 27 -80 0 -81 0 0
-64z"/>
<path d="M1190 1826 l0 -65 48 -4 47 -3 -47 -2 c-46 -2 -48 -3 -48 -32 l0 -30
75 0 75 0 0 64 0 65 -47 4 -48 3 48 2 c45 2 47 3 47 32 l0 30 -75 0 -75 0 0
-64z"/>
<path d="M573 1548 c3 -29 25 -264 48 -523 23 -259 43 -472 45 -474 2 -2 97
-30 211 -62 l207 -58 208 58 c115 32 210 60 212 62 2 2 22 215 45 474 23 259
45 494 48 523 l6 52 -518 0 -518 0 6 -52z m837 -175 c0 -30 -51 -607 -55 -629
-4 -17 -27 -26 -137 -57 l-133 -36 -132 36 c-90 25 -134 42 -137 52 -3 9 -7
55 -11 104 l-7 87 65 0 c71 0 77 -5 77 -66 0 -32 2 -34 58 -49 31 -9 63 -18
70 -21 11 -3 151 30 157 38 1 2 5 38 9 81 l7 77 -226 0 -225 0 0 24 c0 13 -3
44 -6 70 l-7 46 235 0 236 0 6 23 c3 12 6 38 6 58 l0 36 -127 6 c-71 4 -180 7
-244 7 l-116 0 -7 31 c-3 17 -6 47 -6 65 l0 34 325 0 c302 0 325 -1 325 -17z"/>
</g>
</svg>
