<?xml version="1.0" standalone="no"?>
<!DOCTYPE svg PUBLIC "-//W3C//DTD SVG 20010904//EN"
 "http://www.w3.org/TR/2001/REC-SVG-20010904/DTD/svg10.dtd">
<svg version="1.0" xmlns="http://www.w3.org/2000/svg"
 width="348.000000pt" height="300.000000pt" viewBox="0 0 348.000000 300.000000"
 preserveAspectRatio="xMidYMid meet">

<g transform="translate(0.000000,300.000000) scale(0.100000,-0.100000)"
fill="#000000" stroke="none">
<path d="M1000 2605 l0 -175 60 0 60 0 0 60 0 60 50 0 50 0 0 -60 0 -60 60 0
60 0 0 175 0 175 -60 0 -60 0 0 -55 0 -55 -50 0 -50 0 0 55 0 55 -60 0 -60 0
0 -175z"/>
<path d="M1390 2720 l0 -60 50 0 50 0 0 -115 0 -115 60 0 60 0 0 115 0 115 50
0 50 0 0 60 0 60 -160 0 -160 0 0 -60z"/>
<path d="M1760 2605 l0 -175 55 0 54 0 3 82 3 81 39 -58 39 -58 36 58 36 58 3
-81 3 -82 59 0 60 0 0 175 0 175 -64 0 -64 0 -33 -55 c-18 -30 -36 -55 -39
-55 -3 0 -19 24 -35 53 l-31 52 -62 3 -62 3 0 -176z"/>
<path d="M2200 2605 l0 -175 140 0 140 0 0 60 0 60 -80 0 -80 0 0 115 0 115
-60 0 -60 0 0 -175z"/>
<path d="M837 2238 c2 -24 39 -440 83 -926 43 -486 80 -885 82 -886 1 -2 168
-49 370 -105 l367 -101 368 101 c202 56 370 103 371 105 6 4 169 1838 165
1847 -2 4 -411 7 -907 7 l-904 0 5 -42z m1469 -405 c-4 -38 -9 -89 -12 -115
l-6 -48 -435 0 -435 0 6 -37 c3 -21 8 -73 12 -115 l6 -78 414 0 c228 0 414 -1
414 -2 0 -2 -14 -151 -30 -332 -17 -181 -30 -337 -30 -347 0 -20 -13 -24 -303
-104 l-168 -46 -230 65 c-127 35 -232 65 -234 67 -3 4 -35 319 -35 348 0 7 36
11 115 11 l114 0 5 -32 c3 -18 7 -57 10 -87 3 -29 8 -56 10 -59 3 -3 59 -19
124 -37 l119 -33 122 33 c68 19 125 35 127 37 2 3 10 68 17 146 l13 142 -392
0 -393 0 -6 53 c-7 63 -55 605 -55 624 0 11 101 13 571 13 l571 0 -6 -67z"/>
</g>
</svg>
