<?xml version="1.0" standalone="no"?>
<!DOCTYPE svg PUBLIC "-//W3C//DTD SVG 20010904//EN"
 "http://www.w3.org/TR/2001/REC-SVG-20010904/DTD/svg10.dtd">
<svg version="1.0" xmlns="http://www.w3.org/2000/svg"
 width="225.000000pt" height="225.000000pt" viewBox="0 0 225.000000 225.000000"
 preserveAspectRatio="xMidYMid meet">

<g transform="translate(0.000000,225.000000) scale(0.100000,-0.100000)"
fill="#000000" stroke="none">
<path d="M1364 1169 c-18 -5 -46 -25 -63 -44 -26 -30 -31 -44 -31 -88 0 -79
30 -117 135 -166 68 -33 86 -46 91 -67 18 -72 -126 -86 -165 -17 -8 16 -12 16
-46 -2 -21 -11 -40 -26 -42 -33 -7 -18 44 -70 87 -89 47 -21 156 -21 197 0 65
34 93 102 73 176 -13 49 -53 84 -146 126 -76 35 -94 58 -74 95 14 26 66 27 95
0 21 -20 21 -20 58 6 20 13 37 28 37 32 0 17 -58 63 -91 72 -40 12 -73 12
-115 -1z"/>
<path d="M1070 977 c0 -158 -3 -197 -16 -215 -21 -31 -67 -29 -93 4 l-20 26
-41 -23 c-22 -12 -40 -28 -40 -34 0 -6 15 -26 34 -44 61 -59 177 -62 236 -6
41 39 50 93 50 299 l0 186 -55 0 -55 0 0 -193z"/>
</g>
</svg>
